<svg width="19" height="18" viewBox="0 0 19 18" fill="none" xmlns="http://www.w3.org/2000/svg">
<path d="M16.5823 7.04708C17.0158 6.62614 17.2326 6.41567 17.2386 6.15251C17.2388 6.14272 17.2388 6.13293 17.2386 6.12315C17.2326 5.85999 17.0158 5.64952 16.5823 5.22858C16.1715 4.82967 15.9661 4.63022 15.7136 4.62467C15.7041 4.62446 15.6947 4.62446 15.6853 4.62467C15.4328 4.63023 15.2274 4.82968 14.8166 5.2286L10.7001 9.2257C10.2768 9.6367 10.0652 9.8422 9.80444 9.8422C9.54368 9.8422 9.33205 9.6367 8.90877 9.2257L4.79233 5.22859C4.38151 4.82968 4.1761 4.63023 3.9236 4.62467C3.91418 4.62446 3.90475 4.62446 3.89532 4.62467C3.64282 4.63022 3.43741 4.82967 3.02658 5.22858C2.59306 5.64952 2.3763 5.85999 2.37028 6.12314C2.37006 6.13293 2.37006 6.14272 2.37028 6.15251C2.37629 6.41567 2.59305 6.62614 3.02656 7.04708L8.90877 12.7588C9.33205 13.1698 9.54368 13.3753 9.80444 13.3753C10.0652 13.3753 10.2768 13.1698 10.7001 12.7588L16.5823 7.04708Z" fill="#130F40"/>
</svg>
