<svg width="38" height="38" viewBox="0 0 38 38" fill="none" xmlns="http://www.w3.org/2000/svg">
<rect width="38" height="38" rx="10" fill="#AE00B9"/>
<path d="M16.1558 15.5886C16.2165 15.6336 16.2751 15.6757 16.3323 15.7193L20.3023 18.7579C20.7437 19.095 20.8865 19.0979 21.3287 18.7571C21.9244 18.3014 22.5194 17.8443 23.1158 17.3886L26.8973 14.4929H16.3744C16.4008 14.8879 16.3158 15.2471 16.1201 15.5643L16.1558 15.5886Z" fill="#FBF2FB"/>
<path d="M24.9938 17.3093C23.9746 18.09 22.956 18.8707 21.9367 19.6507C21.1588 20.2436 20.4631 20.245 19.6824 19.6436C18.3281 18.6036 16.9717 17.5643 15.6138 16.5271C15.5388 16.47 15.456 16.4214 15.3603 16.365L15.341 16.3536C15.3138 16.3371 15.2846 16.3207 15.2567 16.3036C15.2296 16.3186 15.1988 16.335 15.166 16.3521L15.1496 16.3593C15.0088 16.4343 14.816 16.5386 14.6417 16.655C14.266 16.9071 14.2724 17.3 14.3353 17.6886C14.3546 17.8071 14.4096 17.9443 14.4988 18.0964C14.7931 18.5971 15.0903 19.0957 15.3867 19.595L15.5853 19.9279C15.8531 20.3793 16.1224 20.8307 16.3896 21.2829C16.5453 21.5464 16.7653 21.7379 17.0624 21.8693C17.3617 22.0021 17.6296 21.9907 17.881 21.8343C18.0338 21.7379 18.1988 21.6486 18.3438 21.5679L18.541 21.4586C19.2746 21.0507 20.0353 21.1043 20.686 21.6129C20.8296 21.725 21.0146 21.8779 21.161 22.0579C21.3388 22.2779 21.516 22.5043 21.686 22.7393C21.7088 22.7393 21.7324 22.7393 21.7546 22.74H25.1338C25.8167 22.74 26.501 22.74 27.1838 22.7393C27.5381 22.7379 27.571 22.7064 27.571 22.3636V15.3364L24.9938 17.3093Z" fill="#FBF2FB"/>
<path d="M21.7555 25.2128C21.7412 25.1128 21.6876 24.9814 21.6069 24.7871C21.3147 24.0857 20.8933 23.4171 20.3205 22.7421C20.2147 22.6178 20.0797 22.5071 19.9626 22.4157C19.684 22.2014 19.4076 22.1857 19.119 22.365C18.8955 22.5057 18.6276 22.6657 18.3405 22.7978C18.1333 22.8928 17.8905 22.9936 17.6455 23.0071C16.6997 23.0614 15.9669 22.6707 15.4669 21.8543C14.7647 20.705 14.1333 19.64 13.5333 18.5971C13.3769 18.325 13.2683 18.0128 13.2262 17.7171C13.1247 16.9971 13.3447 16.0693 14.2662 15.6221C14.414 15.5507 14.559 15.465 14.6883 15.3893C14.7819 15.3336 14.8769 15.2786 14.9726 15.2257C15.204 15.1007 15.3047 14.9028 15.2812 14.6221C15.2726 14.5193 15.259 14.4 15.2247 14.2921C14.9297 13.3878 14.4719 12.565 13.864 11.8478C13.8083 11.7814 13.7369 11.7178 13.6433 11.6521V11.6493C13.6419 11.6493 13.6405 11.6493 13.6383 11.6493C13.6097 11.6286 13.579 11.6078 13.5455 11.5871C13.529 11.5764 13.4976 11.5693 13.4662 11.5693C13.4412 11.5693 13.4305 11.5743 13.4269 11.5757C13.2205 11.6771 13.0197 11.7771 12.8419 11.9064C12.7283 11.9886 12.6197 12.0728 12.5162 12.16C11.2805 13.025 10.5862 14.24 10.4519 15.7778C10.3419 17.0457 10.624 18.2993 11.2855 19.5043C12.0705 20.9243 12.9176 22.3021 13.5655 23.355C14.0612 24.1657 14.7219 24.8443 15.5212 25.3843C16.554 26.0771 17.6076 26.43 18.6547 26.43C19.5497 26.43 20.4519 26.1743 21.3405 25.6614C21.3697 25.6443 21.3976 25.6257 21.4247 25.6071C21.6869 25.465 21.779 25.3878 21.7583 25.22C21.759 25.2178 21.7605 25.2157 21.7612 25.2143L21.7555 25.2128Z" fill="#FBF2FB"/>
</svg>
