<svg width="58" height="58" viewBox="0 0 58 58" fill="none" xmlns="http://www.w3.org/2000/svg">
<rect width="58" height="58" rx="10" fill="#489CFF"/>
<path d="M25.9781 28.2644C26.0416 28.0103 26.0925 27.7843 26.1575 27.5622C26.1721 27.5133 26.2283 27.4585 26.2778 27.441C27.1831 27.119 28.0725 26.7403 29.0699 26.8004C29.9195 26.8514 30.6997 27.3595 30.8332 28.1175C30.916 28.5908 30.886 29.114 30.7773 29.5848C30.5315 30.6492 30.1964 31.6933 29.9166 32.7504C29.8376 33.0501 29.8022 33.3657 29.7857 33.676C29.7619 34.1231 29.9549 34.3525 30.3991 34.4365C30.8618 34.5238 31.3136 34.4646 31.754 34.3022C31.7836 34.2911 31.8161 34.288 31.8883 34.2721C31.8257 34.5156 31.7759 34.7328 31.7109 34.9452C31.6968 34.9918 31.6357 35.0397 31.5862 35.0567C31.0383 35.2464 30.4985 35.4801 29.9355 35.6041C29.1344 35.7806 28.3304 35.7778 27.6084 35.2797C27.0827 34.917 26.8568 34.4151 26.8907 33.7837C26.9518 32.6486 27.4057 31.6093 27.6748 30.5246C27.8082 29.9873 27.9444 29.4442 28.0007 28.8953C28.0633 28.2862 27.7422 28.003 27.1157 28.0249C26.9261 28.0316 26.736 28.0622 26.5498 28.101C26.3675 28.1398 26.19 28.2028 25.9781 28.2644Z" fill="white"/>
<path d="M29.6936 22.3184C30.6222 22.3159 31.3175 23.022 31.3011 23.9273C31.2889 24.5902 30.8331 25.1649 30.1625 25.3632C29.4245 25.5809 28.5996 25.2177 28.28 24.5345C27.8291 23.5695 28.4619 22.4459 29.5229 22.329C29.5864 22.3227 29.6509 22.3213 29.6936 22.3184Z" fill="white"/>
<path fill-rule="evenodd" clip-rule="evenodd" d="M29.0004 15.2858C21.4383 15.2858 15.2861 21.438 15.2861 29.0001C15.2861 36.5627 21.4383 42.7143 29.0004 42.7143C36.563 42.7143 42.7147 36.5627 42.7147 29.0001C42.7147 21.438 36.563 15.2858 29.0004 15.2858ZM20.7544 20.754C22.9571 18.5509 25.8848 17.3385 29.0004 17.3385C32.116 17.3385 35.0432 18.5513 37.2464 20.754C39.4497 22.9567 40.6619 25.8849 40.6619 29.0001C40.6619 32.1152 39.4492 35.0429 37.2464 37.246C35.0438 39.4493 32.1156 40.6616 29.0004 40.6616C25.8853 40.6616 22.9576 39.4488 20.7544 37.246C18.5512 35.0434 17.3388 32.1157 17.3388 29.0001C17.3388 25.8845 18.5517 22.9567 20.7544 20.754Z" fill="white"/>
</svg>
