<svg width="38" height="38" viewBox="0 0 38 38" fill="none" xmlns="http://www.w3.org/2000/svg">
<rect width="38" height="38" rx="10" fill="#189FFF"/>
<path d="M27.5651 16.8263C27.5564 16.1239 27.1401 15.4908 26.5071 15.2306C26.2122 15.1005 25.9 15.1092 25.6312 15.1179H25.5444C25.5358 15.1179 25.5271 15.1179 25.5271 15.1179C25.5184 15.1092 25.5184 15.1005 25.5097 15.0919C25.0588 14.2073 24.4517 13.4181 23.7319 12.7764C23.6365 12.6897 23.5411 12.6029 23.4457 12.5422C23.255 12.3861 23.0555 12.2387 22.856 12.0999C22.752 12.0392 22.6479 11.9699 22.5438 11.9092C22.327 11.7877 22.1102 11.675 21.8847 11.5709C21.6679 11.4582 21.4338 11.3715 21.1996 11.3021C21.1129 11.2674 21.0175 11.2414 20.9221 11.2154C20.74 11.1633 20.5579 11.12 20.3758 11.0853C20.1676 11.0419 19.9595 11.0072 19.7427 10.9812C19.734 10.9899 19.7254 10.9812 19.7167 10.9812C19.5086 10.9639 19.2917 10.9465 19.0749 10.9379H18.9795C18.8408 10.9379 18.6934 10.9465 18.5546 10.9552C17.1931 11.0333 15.9356 11.5102 14.8602 12.2734C14.8342 12.2907 14.8169 12.3081 14.7908 12.3254C14.6174 12.4468 14.4526 12.5856 14.2965 12.7243C14.1925 12.8111 14.0884 12.8978 13.993 13.0019C13.3686 13.6089 12.8309 14.3287 12.432 15.1266H12.4233H12.2239C12.1545 15.1179 12.0764 15.1092 12.0071 15.1179C11.9377 15.1179 11.8596 15.1266 11.7989 15.1352C11.2699 15.1959 10.8016 15.5602 10.5761 16.0718C10.4807 16.2973 10.4287 16.5401 10.4287 16.783V21.1364C10.4287 21.3359 10.4547 21.5267 10.5241 21.7175C10.7409 22.3592 11.322 22.8015 11.955 22.8015C12.0591 22.8102 12.1718 22.8102 12.3193 22.8015H12.3973C12.8743 23.7815 13.542 24.64 14.3486 25.3164C14.6087 25.5506 14.8776 25.7501 15.1638 25.9322C15.3025 26.0276 15.4499 26.1056 15.5974 26.1923C15.7535 26.2791 15.9182 26.3571 16.0743 26.4352C16.3605 26.5653 16.6554 26.678 16.9589 26.7647C16.9676 26.7734 16.9763 26.7734 16.9849 26.7734C17.115 26.8167 17.2451 26.8514 17.3752 26.8775C17.8955 27.0075 18.4245 27.0682 18.9709 27.0682C19.3264 27.0682 19.6907 27.0422 20.0462 26.9815C20.1937 26.9555 20.3498 26.9295 20.4885 26.9035C20.6273 26.8688 20.7574 26.8341 20.8874 26.7994C21.1303 26.73 21.3557 26.6606 21.5812 26.5653C21.6853 26.5219 21.7894 26.4785 21.8847 26.4352C22.6739 26.0969 23.3764 25.6026 24.0008 24.9696C24.0875 24.8828 24.1742 24.7961 24.2609 24.7007C24.391 24.562 24.5124 24.4145 24.6338 24.2584C24.9547 23.8595 25.2409 23.4259 25.4837 22.9576C25.5878 22.8188 25.7005 22.7842 25.9 22.7842H25.926C26.3596 22.7842 26.7672 22.6194 27.0621 22.3159C27.3829 21.995 27.5564 21.5527 27.5651 21.0757C27.5737 19.8269 27.5737 18.474 27.5651 16.8263ZM21.4164 22.5934H20.159L18.9969 18.6128L17.8261 22.5934H16.5687L14.7128 15.9331H16.2911L16.3085 15.9678L17.2711 19.5147L18.4245 15.9331H19.5606L20.714 19.5147L21.694 15.9331H23.281L23.2723 15.9851L21.4164 22.5934Z" fill="#F4FAFF"/>
</svg>
