<svg width="38" height="38" viewBox="0 0 38 38" fill="none" xmlns="http://www.w3.org/2000/svg">
<rect width="38" height="38" rx="10" fill="#20AE60"/>
<path d="M19.005 14.6191C20.2674 14.6191 21.2907 13.681 21.2907 12.5238C21.2907 11.3667 20.2674 10.4286 19.005 10.4286C17.7427 10.4286 16.7193 11.3667 16.7193 12.5238C16.7193 13.681 17.7427 14.6191 19.005 14.6191Z" fill="#E5FFEC"/>
<path d="M23.1954 26.5049C23.1954 27.0942 22.7266 27.5715 22.1478 27.5715H15.8621C15.2833 27.5715 14.8145 27.0942 14.8145 26.5049C14.8145 25.9155 15.2833 25.4382 15.8621 25.4382H16.9097V19.0382H15.8621C15.2833 19.0382 14.8145 18.5609 14.8145 17.9715C14.8145 17.3822 15.2833 16.9049 15.8621 16.9049H20.0525C20.6314 16.9049 21.1002 17.3822 21.1002 17.9715V25.4382H22.1478C22.7266 25.4382 23.1954 25.9155 23.1954 26.5049Z" fill="#E5FFEC"/>
</svg>
