<svg width="58" height="58" viewBox="0 0 58 58" fill="none" xmlns="http://www.w3.org/2000/svg">
<rect width="58" height="58" rx="10" fill="#FBBC05"/>
<path fill-rule="evenodd" clip-rule="evenodd" d="M29.0004 31.4731H29.1433L29.461 31.4742C31.893 31.4902 37.4507 31.7291 37.4507 35.3931C37.4507 39.0331 32.0861 39.2708 29.4987 39.2857H28.5398C26.1078 39.2697 20.5478 39.0319 20.5478 35.3725C20.5478 31.7279 26.1067 31.4902 28.5398 31.4754L28.8576 31.4742C28.9078 31.4731 28.9558 31.4731 29.0004 31.4731ZM29.0004 33.3119C26.0073 33.3119 22.4381 33.6697 22.4381 35.3725C22.4381 37.0365 25.7936 37.4262 28.7273 37.4479L29.0004 37.4491C31.9936 37.4491 35.5616 37.0925 35.5616 35.3931C35.5616 33.6731 31.9947 33.3119 29.0004 33.3119ZM39.021 30.9759C42.0736 31.4217 42.7147 32.8159 42.7147 33.9074C42.7147 34.5737 42.445 35.7908 40.6438 36.4582C40.533 36.4982 40.4198 36.5188 40.3078 36.5188C39.9273 36.5188 39.5684 36.2937 39.4244 35.9268C39.2381 35.4525 39.4838 34.9211 39.9707 34.7405C40.8244 34.4239 40.8244 34.0754 40.8244 33.9074C40.8244 33.3702 40.1227 32.9954 38.7398 32.7954C38.2244 32.7199 37.8678 32.2525 37.9444 31.7485C38.0221 31.2457 38.501 30.9119 39.021 30.9759ZM20.0553 31.7485C20.1318 32.2525 19.7753 32.7188 19.2598 32.7954C17.877 32.9965 17.1753 33.3714 17.1753 33.9074C17.1753 34.0754 17.1753 34.4228 18.0301 34.7405C18.5181 34.9211 18.7638 35.4525 18.5764 35.9268C18.4324 36.2925 18.0736 36.5188 17.693 36.5188C17.581 36.5188 17.4678 36.4994 17.357 36.4582C15.5558 35.7885 15.2861 34.5725 15.2861 33.9074C15.2861 32.8171 15.9273 31.4217 18.981 30.9771C19.501 30.9131 19.9776 31.2457 20.0553 31.7485ZM29.0004 18.7142C32.1753 18.7142 34.757 21.2262 34.757 24.3119C34.757 27.3988 32.1753 29.9097 29.0004 29.9097H28.9661C27.429 29.9051 25.989 29.3188 24.9113 28.2605C23.8313 27.2034 23.2404 25.7999 23.2461 24.3085C23.2461 21.2262 25.8278 18.7142 29.0004 18.7142ZM29.0004 20.5519C26.869 20.5519 25.1353 22.2388 25.1353 24.3119C25.1318 25.3165 25.5273 26.2559 26.2518 26.9657C26.9764 27.6754 27.941 28.0685 28.9696 28.0719H29.0004C31.1318 28.0719 32.8667 26.3862 32.8667 24.3119C32.8678 22.2388 31.133 20.5519 29.0004 20.5519ZM36.7981 19.9142C39.013 20.2685 40.6221 22.1108 40.6221 24.2959C40.6176 26.4948 38.9273 28.3817 36.6918 28.6868C36.6473 28.6925 36.6038 28.6948 36.5604 28.6948C36.0964 28.6948 35.6918 28.3622 35.6256 27.9028C35.5536 27.3988 35.9124 26.9348 36.4301 26.8651C37.7398 26.6868 38.7296 25.5817 38.7318 24.2925C38.7318 23.0148 37.789 21.9337 36.4907 21.7268C35.9764 21.6445 35.6278 21.1714 35.7124 20.6708C35.7981 20.1702 36.2804 19.8342 36.7981 19.9142ZM22.2896 20.6719C22.3741 21.1725 22.0256 21.6457 21.5113 21.7279C20.213 21.9348 19.2701 23.0148 19.2701 24.2959C19.2724 25.5828 20.2621 26.6891 21.5707 26.8662C22.0884 26.9359 22.4473 27.3999 22.3753 27.9039C22.309 28.3634 21.9044 28.6959 21.4404 28.6959C21.3981 28.6959 21.3536 28.6937 21.309 28.6879C19.0724 28.3828 17.3844 26.4959 17.3798 24.2994C17.3798 22.1119 18.989 20.2697 21.2038 19.9154C21.7341 19.8331 22.205 20.1725 22.2896 20.6719Z" fill="white"/>
</svg>
