<svg width="16" height="16" viewBox="0 0 16 16" fill="none" xmlns="http://www.w3.org/2000/svg">
<path d="M14.3967 6.2655C14.4251 6.2408 14.4392 6.22844 14.4505 6.21812C14.9926 5.72188 14.9926 4.86759 14.4505 4.37137C14.4392 4.36104 14.4251 4.34869 14.3967 4.32399C14.3792 4.30869 14.3704 4.30105 14.3622 4.29418C13.9825 3.9745 13.4497 3.90939 13.0042 4.12822C12.9946 4.13292 12.9843 4.13823 12.9635 4.14884L9.14177 6.10738C8.58195 6.39427 8.30204 6.53771 7.99996 6.53771C7.69789 6.53771 7.41798 6.39427 6.85816 6.10738L3.03638 4.14884C3.01567 4.13823 3.00531 4.13292 2.99574 4.12822C2.55019 3.90939 2.01744 3.9745 1.63771 4.29418C1.62955 4.30105 1.62078 4.30869 1.60323 4.32399C1.57488 4.34869 1.5607 4.36104 1.54942 4.37137C1.0073 4.86759 1.00729 5.72188 1.5494 6.21811C1.56069 6.22844 1.57486 6.2408 1.60321 6.2655L6.35517 10.4064C7.13911 11.0896 7.53107 11.4311 7.99996 11.4311C8.46886 11.4311 8.86082 11.0896 9.64475 10.4064L14.3967 6.2655Z" fill="#5A577A"/>
</svg>
